<svg xmlns="http://www.w3.org/2000/svg" width="108.739" height="108.595" viewBox="0 0 108.739 108.595">
  <g id="LOGO" transform="translate(-287.088 -104.427)">
    <path id="Path_8749" data-name="Path 8749" d="M395.827,158.8a54.369,54.369,0,1,1-54.335-54.376A54.39,54.39,0,0,1,395.827,158.8Zm-22.333,2.282c-.17-.507-.266-.748-.331-1-.419-1.588-.848-3.174-1.238-4.77-.134-.548-.379-.805-.98-.787-1.255.038-2.512.033-3.768,0-.581-.013-.816.2-.793.78.026.656,0,1.314,0,1.971,0,2.689-.01,5.377.023,8.065,0,.278.256.777.422.79.973.076,1.955.037,2.989.037v-6.253l.164-.034,1.211,4.348c.549,1.972.55,1.935,2.571,1.971a1.026,1.026,0,0,0,1.212-.947c.442-1.813.974-3.6,1.471-5.4a1.255,1.255,0,0,1,.178.771c-.013,1.583-.007,3.167-.052,4.749-.018.622.2.863.823.828a21.362,21.362,0,0,1,2.152-.005c.564.025.8-.151.8-.755q-.029-5.063,0-10.127c0-.575-.2-.805-.781-.789a24.825,24.825,0,0,1-3.138-.015c-.991-.1-1.351.3-1.551,1.21C374.5,157.439,374.008,159.124,373.494,161.084Zm-60.448-6.534a1.511,1.511,0,0,0-.065.348c.827,3.576,1.647,7.154,2.513,10.72a.988.988,0,0,0,.727.546c.861.07,1.735-.022,2.6.044.766.059,1.03-.244,1.164-.972.343-1.87.777-3.724,1.175-5.584a3.149,3.149,0,0,1,.493,1.261c.325,1.518.664,3.033.955,4.557.1.542.336.759.9.736.9-.037,1.794-.036,2.689,0a.772.772,0,0,0,.919-.714q1.154-5.109,2.374-10.2c.141-.592-.069-.761-.614-.746a12.889,12.889,0,0,1-1.792-.01c-.921-.1-1.32.215-1.45,1.173-.217,1.608-.592,3.195-.9,4.79l-.223.008c-.289-1.322-.583-2.644-.867-3.967-.429-1.992-.426-2.012-2.458-1.987-1.872.022-1.628-.371-2.043,1.725-.279,1.412-.572,2.821-.858,4.231l-.229,0c-.071-.306-.149-.611-.211-.919-.281-1.4-.532-2.816-.858-4.21-.071-.305-.389-.767-.622-.785C315.265,154.5,314.164,154.551,313.047,154.551Zm37.263,5.8H350.3c0,1.643.027,3.286-.013,4.928-.017.682.158.944.9.93,2.481-.045,4.964-.016,7.446-.018,1.915,0,1.881,0,1.905-1.893.01-.757-.257-.99-.985-.972-1.584.038-3.17-.008-4.754.021-.65.011-.719-.331-.71-.848.009-.5.042-.878.706-.853.926.035,1.854.015,2.78,0,2.178-.029,1.877.37,1.922-1.972.012-.6-.228-.785-.8-.773-1.285.025-2.572-.015-3.857.02-.613.017-.754-.246-.758-.8,0-.623.253-.778.962-.712a14.588,14.588,0,0,0,2.441.036c3.311-.246,2.881.685,2.934-2.1.016-.868-.473-.908-1.681-.745a24.745,24.745,0,0,1-6.894-.015c-1.291-.188-1.571.007-1.552.831C350.335,157.065,350.309,158.708,350.309,160.351Zm-54.745,5.823c1.294,0,2.416.019,3.536-.021a.664.664,0,0,0,.453-.451c.125-1.088.81-1.222,1.716-1.138a12.289,12.289,0,0,0,1.882,0,.854.854,0,0,1,1.014.747c.08.31.327.807.524.819,1.2.077,2.4.038,3.735.038-1.4-3.845-2.721-7.492-4.086-11.122a1.082,1.082,0,0,0-.812-.486c-.953-.061-1.914.016-2.868-.036a1.023,1.023,0,0,0-1.176.813c-.7,2-1.442,3.984-2.165,5.976C296.751,162.876,296.191,164.438,295.565,166.174Zm43.354-3.013c-.027-.413-.069-.76-.07-1.107-.006-2.178-.024-4.356.009-6.533.011-.711-.174-1.057-.951-.992a12.815,12.815,0,0,1-1.969,0c-.709-.051-.92.225-.913.924q.047,4.922,0,9.844c-.008.722.231.919.917.909,2.239-.032,4.48-.013,6.72-.013,2.176,0,2.153,0,2.151-2.168,0-.664-.216-.89-.879-.876C342.319,163.185,340.707,163.161,338.919,163.161Zm1.183-11.824a5.568,5.568,0,0,0,2.041-4.213,8.19,8.19,0,0,0-2.337-5.812,11.374,11.374,0,0,1-1.712-2.974,6.119,6.119,0,0,1-.042-2.087,3.442,3.442,0,0,0-2.112,1.85c-.43.829-.718,1.731-1.11,2.7l-1.193-.9a5.959,5.959,0,0,0,3.052,5.447,11.979,11.979,0,0,1,2.084,1.522A4.735,4.735,0,0,1,340.1,151.337Zm-8.484-5.5-.312.031a20.654,20.654,0,0,0,.343,3.635,5.809,5.809,0,0,0,4.615,4.488c1.929.405,3.321-.495,3.546-2.292a3.287,3.287,0,0,0-.9-2.966,11.808,11.808,0,0,0-1.846-1.395,10.7,10.7,0,0,1-3.644-3.5c-.3-.488-.516-1.022-.885-1.765a6.556,6.556,0,0,0,2.4,6.02,9.116,9.116,0,0,1,1.713,1.54,1.754,1.754,0,0,1,.156,1.533c-.325.615-1.053.451-1.6.169a3.284,3.284,0,0,1-1.138-.844,20.6,20.6,0,0,1-1.7-2.607A14.288,14.288,0,0,1,331.618,145.834Z" transform="translate(0 0)" fill="#d80200"/>
    <path id="Path_8750" data-name="Path 8750" d="M735.973,390c.514-1.96,1.009-3.645,1.384-5.356.2-.913.56-1.308,1.551-1.21a24.825,24.825,0,0,0,3.138.015c.585-.016.784.214.781.789q-.027,5.063,0,10.127c0,.6-.236.78-.8.755a21.357,21.357,0,0,0-2.152.005c-.627.035-.84-.206-.823-.828.045-1.582.038-3.166.052-4.749a1.255,1.255,0,0,0-.178-.771c-.5,1.8-1.029,3.59-1.471,5.4a1.026,1.026,0,0,1-1.212.947c-2.021-.036-2.022,0-2.571-1.971l-1.211-4.348-.164.034V395.1c-1.034,0-2.016.039-2.989-.037-.167-.013-.419-.513-.422-.79-.033-2.688-.023-5.377-.023-8.065,0-.657.027-1.315,0-1.971-.023-.581.212-.794.793-.78,1.255.029,2.513.034,3.768,0,.6-.018.846.239.98.787.391,1.6.819,3.181,1.238,4.77C735.708,389.255,735.8,389.5,735.973,390Z" transform="translate(-362.479 -228.919)" fill="#fff"/>
    <path id="Path_8751" data-name="Path 8751" d="M431.4,383.5c1.117,0,2.219-.046,3.31.037.233.018.551.479.622.785.326,1.394.576,2.806.858,4.21.062.308.14.613.211.919l.229,0c.286-1.41.579-2.819.858-4.231.415-2.1.171-1.7,2.043-1.725,2.032-.024,2.03,0,2.458,1.987.285,1.323.578,2.645.867,3.967l.223-.008c.309-1.6.684-3.182.9-4.79.129-.958.528-1.277,1.45-1.173a12.886,12.886,0,0,0,1.792.01c.545-.015.755.154.614.746q-1.215,5.095-2.374,10.2a.772.772,0,0,1-.919.714c-.9-.032-1.794-.033-2.689,0-.559.023-.792-.193-.9-.736-.291-1.524-.631-3.039-.955-4.557a3.149,3.149,0,0,0-.493-1.261c-.4,1.86-.832,3.714-1.175,5.584-.133.727-.4,1.031-1.164.972-.862-.066-1.736.026-2.6-.044a.988.988,0,0,1-.727-.546c-.866-3.566-1.686-7.144-2.513-10.72A1.512,1.512,0,0,1,431.4,383.5Z" transform="translate(-118.356 -228.953)" fill="#fff"/>
    <path id="Path_8752" data-name="Path 8752" d="M639.22,389.371c0-1.643.026-3.286-.013-4.928-.019-.824.261-1.02,1.552-.831a24.745,24.745,0,0,0,6.894.015c1.208-.164,1.7-.123,1.681.745-.052,2.78.378,1.849-2.934,2.095a14.588,14.588,0,0,1-2.441-.036c-.709-.067-.966.089-.962.712,0,.555.145.818.758.8,1.285-.035,2.572.005,3.857-.021.568-.011.807.178.8.773-.045,2.343.256,1.943-1.922,1.972-.927.013-1.855.032-2.781,0-.664-.026-.7.353-.706.853-.009.517.06.859.71.848,1.584-.028,3.17.017,4.754-.021.728-.017.995.215.985.972-.024,1.889.01,1.891-1.905,1.893-2.482,0-4.964-.027-7.446.018-.74.013-.914-.248-.9-.93.04-1.642.013-3.285.013-4.928Z" transform="translate(-288.91 -229.02)" fill="#fff"/>
    <path id="Path_8753" data-name="Path 8753" d="M334.317,395.189c.626-1.737,1.186-3.3,1.752-4.857.723-1.992,1.47-3.975,2.165-5.976a1.023,1.023,0,0,1,1.176-.813c.954.052,1.915-.025,2.868.036a1.082,1.082,0,0,1,.812.486c1.364,3.629,2.683,7.276,4.086,11.122-1.33,0-2.536.038-3.735-.038-.2-.013-.444-.509-.524-.819a.854.854,0,0,0-1.014-.747,12.291,12.291,0,0,1-1.882,0c-.906-.084-1.591.05-1.716,1.138a.664.664,0,0,1-.453.451C336.733,395.208,335.611,395.189,334.317,395.189ZM339.5,390.8h2.343l-1.044-3.6h-.223Z" transform="translate(-38.752 -229.015)" fill="#fff"/>
    <path id="Path_8754" data-name="Path 8754" d="M558.036,392.162c1.789,0,3.4.024,5.011-.012.663-.015.878.212.879.876,0,2.168.025,2.168-2.151,2.168-2.24,0-4.48-.019-6.72.013-.686.01-.925-.187-.917-.909q.057-4.922,0-9.844c-.007-.7.2-.975.913-.924a12.813,12.813,0,0,0,1.969,0c.778-.065.962.281.951.992-.034,2.177-.015,4.355-.009,6.533C557.967,391.4,558.009,391.749,558.036,392.162Z" transform="translate(-219.117 -229.002)" fill="#fff"/>
    <path id="Path_8755" data-name="Path 8755" d="M552.822,296.813a4.735,4.735,0,0,0-1.328-4.467,11.976,11.976,0,0,0-2.084-1.522,5.959,5.959,0,0,1-3.052-5.447l1.193.9c.392-.972.68-1.874,1.11-2.7a3.442,3.442,0,0,1,2.112-1.85,6.119,6.119,0,0,0,.042,2.087,11.373,11.373,0,0,0,1.712,2.974,8.19,8.19,0,0,1,2.337,5.812A5.568,5.568,0,0,1,552.822,296.813Z" transform="translate(-212.72 -145.477)" fill="#face4c"/>
    <path id="Path_8756" data-name="Path 8756" d="M533.754,317.911a14.288,14.288,0,0,0,.746,2.047,20.605,20.605,0,0,0,1.7,2.607,3.284,3.284,0,0,0,1.138.844c.552.282,1.28.445,1.6-.169a1.754,1.754,0,0,0-.156-1.533,9.116,9.116,0,0,0-1.713-1.54,6.556,6.556,0,0,1-2.4-6.02c.369.743.589,1.277.885,1.765a10.7,10.7,0,0,0,3.644,3.5,11.807,11.807,0,0,1,1.846,1.395,3.287,3.287,0,0,1,.9,2.966c-.225,1.8-1.617,2.7-3.546,2.292a5.809,5.809,0,0,1-4.615-4.488,20.655,20.655,0,0,1-.343-3.635Z" transform="translate(-202.136 -172.077)" fill="#face4c"/>
    <path id="Path_8757" data-name="Path 8757" d="M363.194,407.522l1.075-3.6h.223l1.044,3.6Z" transform="translate(-62.446 -245.736)" fill="#d80200"/>
  </g>
</svg>
